<mxfile host="app.diagrams.net" agent="Mozilla/5.0 (Macintosh; Intel Mac OS X 10_15_7) AppleWebKit/537.36 (KHTML, like Gecko) Chrome/137.0.0.0 Safari/537.36" version="27.1.6">
  <diagram name="第 1 页" id="7HeKyct29qjMqB7Z3Ho2">
    <mxGraphModel dx="2516" dy="1637" grid="1" gridSize="10" guides="1" tooltips="1" connect="1" arrows="1" fold="1" page="1" pageScale="1" pageWidth="827" pageHeight="1169" math="0" shadow="0">
      <root>
        <mxCell id="0" />
        <mxCell id="1" parent="0" />
        <mxCell id="tVDAVDbjrY3sQJ4G50GR-1" value="" style="rounded=0;whiteSpace=wrap;html=1;fillColor=none;strokeColor=#d79b00;" vertex="1" parent="1">
          <mxGeometry x="-210" y="551.44" width="140" height="124.28" as="geometry" />
        </mxCell>
        <mxCell id="tVDAVDbjrY3sQJ4G50GR-2" value="" style="rounded=0;whiteSpace=wrap;html=1;fillColor=none;strokeColor=#D79B00;movable=1;resizable=1;rotatable=1;deletable=1;editable=1;locked=0;connectable=1;" vertex="1" parent="1">
          <mxGeometry x="-770" y="-49.28" width="510" height="685" as="geometry" />
        </mxCell>
        <mxCell id="tVDAVDbjrY3sQJ4G50GR-3" value="" style="rounded=0;whiteSpace=wrap;html=1;fillColor=none;strokeColor=#D79B00;movable=1;resizable=1;rotatable=1;deletable=1;editable=1;locked=0;connectable=1;" vertex="1" parent="1">
          <mxGeometry x="-1020" y="355.72" width="190" height="270" as="geometry" />
        </mxCell>
        <mxCell id="tVDAVDbjrY3sQJ4G50GR-4" style="edgeStyle=orthogonalEdgeStyle;rounded=0;orthogonalLoop=1;jettySize=auto;html=1;exitX=0.5;exitY=1;exitDx=0;exitDy=0;entryX=0;entryY=0.5;entryDx=0;entryDy=0;" edge="1" parent="1" source="tVDAVDbjrY3sQJ4G50GR-5" target="tVDAVDbjrY3sQJ4G50GR-148">
          <mxGeometry relative="1" as="geometry">
            <Array as="points">
              <mxPoint x="-915" y="605.72" />
              <mxPoint x="-1000" y="605.72" />
              <mxPoint x="-1000" y="375.72" />
            </Array>
          </mxGeometry>
        </mxCell>
        <mxCell id="tVDAVDbjrY3sQJ4G50GR-5" value="" style="rounded=0;whiteSpace=wrap;html=1;fillColor=#008a00;strokeColor=none;fontColor=#ffffff;strokeWidth=1;opacity=20;" vertex="1" parent="1">
          <mxGeometry x="-990" y="445.72" width="150" height="140" as="geometry" />
        </mxCell>
        <mxCell id="tVDAVDbjrY3sQJ4G50GR-6" style="edgeStyle=orthogonalEdgeStyle;rounded=0;orthogonalLoop=1;jettySize=auto;html=1;exitX=0.5;exitY=1;exitDx=0;exitDy=0;" edge="1" parent="1" source="tVDAVDbjrY3sQJ4G50GR-8" target="tVDAVDbjrY3sQJ4G50GR-116">
          <mxGeometry relative="1" as="geometry" />
        </mxCell>
        <mxCell id="tVDAVDbjrY3sQJ4G50GR-7" style="edgeStyle=orthogonalEdgeStyle;rounded=0;orthogonalLoop=1;jettySize=auto;html=1;exitX=0.5;exitY=1;exitDx=0;exitDy=0;" edge="1" parent="1" source="tVDAVDbjrY3sQJ4G50GR-8" target="tVDAVDbjrY3sQJ4G50GR-108">
          <mxGeometry relative="1" as="geometry" />
        </mxCell>
        <mxCell id="tVDAVDbjrY3sQJ4G50GR-8" value="" style="rounded=0;whiteSpace=wrap;html=1;" vertex="1" parent="1">
          <mxGeometry x="-687" y="95.72" width="357" height="50" as="geometry" />
        </mxCell>
        <mxCell id="tVDAVDbjrY3sQJ4G50GR-9" value="" style="rounded=0;whiteSpace=wrap;html=1;fillColor=#008a00;strokeColor=none;fontColor=#ffffff;strokeWidth=1;opacity=20;" vertex="1" parent="1">
          <mxGeometry x="-50" y="300" width="280" height="430" as="geometry" />
        </mxCell>
        <mxCell id="tVDAVDbjrY3sQJ4G50GR-10" value="" style="rounded=0;whiteSpace=wrap;html=1;fillColor=#008a00;strokeColor=none;fontColor=#ffffff;strokeWidth=1;opacity=20;" vertex="1" parent="1">
          <mxGeometry x="-130" y="100" width="290" height="140" as="geometry" />
        </mxCell>
        <mxCell id="tVDAVDbjrY3sQJ4G50GR-11" style="rounded=0;orthogonalLoop=1;jettySize=auto;html=1;exitX=0;exitY=0.5;exitDx=0;exitDy=0;entryX=1;entryY=0.5;entryDx=0;entryDy=0;endArrow=none;startFill=0;endFill=1;dashed=1;dashPattern=1 2;" edge="1" parent="1" source="tVDAVDbjrY3sQJ4G50GR-18" target="tVDAVDbjrY3sQJ4G50GR-53">
          <mxGeometry relative="1" as="geometry">
            <mxPoint x="400" y="270" as="targetPoint" />
          </mxGeometry>
        </mxCell>
        <mxCell id="tVDAVDbjrY3sQJ4G50GR-12" style="rounded=0;orthogonalLoop=1;jettySize=auto;html=1;entryX=0;entryY=0.5;entryDx=0;entryDy=0;endArrow=none;startFill=0;exitX=1;exitY=0.5;exitDx=0;exitDy=0;dashed=1;dashPattern=1 2;" edge="1" parent="1" source="tVDAVDbjrY3sQJ4G50GR-18" target="tVDAVDbjrY3sQJ4G50GR-19">
          <mxGeometry relative="1" as="geometry" />
        </mxCell>
        <mxCell id="tVDAVDbjrY3sQJ4G50GR-13" style="rounded=0;orthogonalLoop=1;jettySize=auto;html=1;exitX=1;exitY=1;exitDx=0;exitDy=0;entryX=0;entryY=0;entryDx=0;entryDy=0;endArrow=none;startFill=0;dashed=1;dashPattern=1 2;" edge="1" parent="1" source="tVDAVDbjrY3sQJ4G50GR-18" target="tVDAVDbjrY3sQJ4G50GR-20">
          <mxGeometry relative="1" as="geometry" />
        </mxCell>
        <mxCell id="tVDAVDbjrY3sQJ4G50GR-14" style="rounded=0;orthogonalLoop=1;jettySize=auto;html=1;entryX=1;entryY=0;entryDx=0;entryDy=0;endArrow=none;startFill=0;exitX=0;exitY=1;exitDx=0;exitDy=0;dashed=1;dashPattern=1 2;" edge="1" parent="1" source="tVDAVDbjrY3sQJ4G50GR-18" target="tVDAVDbjrY3sQJ4G50GR-22">
          <mxGeometry relative="1" as="geometry" />
        </mxCell>
        <mxCell id="tVDAVDbjrY3sQJ4G50GR-15" style="rounded=0;orthogonalLoop=1;jettySize=auto;html=1;entryX=0.5;entryY=0;entryDx=0;entryDy=0;endArrow=none;startFill=0;exitX=0.5;exitY=1;exitDx=0;exitDy=0;dashed=1;dashPattern=1 2;" edge="1" parent="1" source="tVDAVDbjrY3sQJ4G50GR-18" target="tVDAVDbjrY3sQJ4G50GR-21">
          <mxGeometry relative="1" as="geometry" />
        </mxCell>
        <mxCell id="tVDAVDbjrY3sQJ4G50GR-16" style="rounded=0;orthogonalLoop=1;jettySize=auto;html=1;exitX=0.5;exitY=0;exitDx=0;exitDy=0;entryX=1;entryY=0.5;entryDx=0;entryDy=0;edgeStyle=orthogonalEdgeStyle;curved=1;" edge="1" parent="1" source="tVDAVDbjrY3sQJ4G50GR-18" target="tVDAVDbjrY3sQJ4G50GR-25">
          <mxGeometry relative="1" as="geometry" />
        </mxCell>
        <mxCell id="tVDAVDbjrY3sQJ4G50GR-17" value="&lt;b&gt;1. 新建 worker 实例&lt;/b&gt;" style="edgeLabel;html=1;align=center;verticalAlign=middle;resizable=0;points=[];fontSize=10;" vertex="1" connectable="0" parent="tVDAVDbjrY3sQJ4G50GR-16">
          <mxGeometry x="-0.1922" y="5" relative="1" as="geometry">
            <mxPoint y="-11" as="offset" />
          </mxGeometry>
        </mxCell>
        <mxCell id="tVDAVDbjrY3sQJ4G50GR-18" value="Server" style="ellipse;whiteSpace=wrap;html=1;fillColor=#dae8fc;strokeColor=#6c8ebf;" vertex="1" parent="1">
          <mxGeometry x="604" y="365.71999999999997" width="90" height="50" as="geometry" />
        </mxCell>
        <mxCell id="tVDAVDbjrY3sQJ4G50GR-19" value="Backend" style="ellipse;whiteSpace=wrap;html=1;fillColor=#f8cecc;strokeColor=#b85450;" vertex="1" parent="1">
          <mxGeometry x="780" y="365.71999999999997" width="90" height="50" as="geometry" />
        </mxCell>
        <mxCell id="tVDAVDbjrY3sQJ4G50GR-20" value="Config" style="ellipse;whiteSpace=wrap;html=1;fillColor=#f5f5f5;strokeColor=#666666;fontColor=#333333;" vertex="1" parent="1">
          <mxGeometry x="730" y="475.71999999999997" width="90" height="50" as="geometry" />
        </mxCell>
        <mxCell id="tVDAVDbjrY3sQJ4G50GR-21" value="Lock" style="ellipse;whiteSpace=wrap;html=1;fillColor=#d5e8d4;strokeColor=#82b366;" vertex="1" parent="1">
          <mxGeometry x="604" y="475.71999999999997" width="90" height="50" as="geometry" />
        </mxCell>
        <mxCell id="tVDAVDbjrY3sQJ4G50GR-22" value="Scheduler" style="ellipse;whiteSpace=wrap;html=1;fillColor=#fff2cc;strokeColor=#d6b656;" vertex="1" parent="1">
          <mxGeometry x="480" y="475.71999999999997" width="90" height="50" as="geometry" />
        </mxCell>
        <mxCell id="tVDAVDbjrY3sQJ4G50GR-23" style="edgeStyle=orthogonalEdgeStyle;rounded=0;orthogonalLoop=1;jettySize=auto;html=1;" edge="1" parent="1" source="tVDAVDbjrY3sQJ4G50GR-25" target="tVDAVDbjrY3sQJ4G50GR-42">
          <mxGeometry relative="1" as="geometry" />
        </mxCell>
        <mxCell id="tVDAVDbjrY3sQJ4G50GR-24" value="&lt;b style=&quot;font-size: 10px;&quot;&gt;3. 启动 worker&lt;/b&gt;" style="edgeLabel;html=1;align=center;verticalAlign=middle;resizable=0;points=[];labelBackgroundColor=default;" vertex="1" connectable="0" parent="tVDAVDbjrY3sQJ4G50GR-23">
          <mxGeometry x="-0.0223" y="-2" relative="1" as="geometry">
            <mxPoint x="-89" y="-18" as="offset" />
          </mxGeometry>
        </mxCell>
        <mxCell id="tVDAVDbjrY3sQJ4G50GR-25" value="Worker" style="ellipse;whiteSpace=wrap;html=1;fillColor=#e1d5e7;strokeColor=#9673a6;" vertex="1" parent="1">
          <mxGeometry x="437.5" y="105" width="70" height="40" as="geometry" />
        </mxCell>
        <mxCell id="tVDAVDbjrY3sQJ4G50GR-26" style="edgeStyle=orthogonalEdgeStyle;rounded=0;orthogonalLoop=1;jettySize=auto;html=1;entryX=0.5;entryY=0;entryDx=0;entryDy=0;" edge="1" parent="1" source="tVDAVDbjrY3sQJ4G50GR-27" target="tVDAVDbjrY3sQJ4G50GR-25">
          <mxGeometry relative="1" as="geometry" />
        </mxCell>
        <mxCell id="tVDAVDbjrY3sQJ4G50GR-27" value="&lt;b&gt;2. 设置钩子函数&lt;/b&gt;" style="text;html=1;align=center;verticalAlign=middle;resizable=0;points=[];autosize=1;strokeColor=none;fillColor=none;fontSize=10;" vertex="1" parent="1">
          <mxGeometry x="427.5" y="-15" width="90" height="30" as="geometry" />
        </mxCell>
        <mxCell id="tVDAVDbjrY3sQJ4G50GR-28" value="&lt;span style=&quot;text-wrap-mode: nowrap; background-color: rgb(255, 255, 255);&quot;&gt;server.NewWorker(...)&lt;/span&gt;" style="rounded=0;whiteSpace=wrap;html=1;fontSize=10;" vertex="1" parent="1">
          <mxGeometry x="590" y="212" width="120" height="20" as="geometry" />
        </mxCell>
        <mxCell id="tVDAVDbjrY3sQJ4G50GR-29" value="&lt;div style=&quot;font-size: 11px; text-wrap-mode: nowrap;&quot;&gt;worker.SetPreTaskHandler(...)&lt;/div&gt;&lt;div style=&quot;font-size: 11px; text-wrap-mode: nowrap;&quot;&gt;worker.SetPostTaskHandler(...)&lt;/div&gt;&lt;div style=&quot;font-size: 11px; text-wrap-mode: nowrap;&quot;&gt;worker.SetErrorHandler(...)&lt;/div&gt;&lt;div style=&quot;font-size: 11px; text-wrap-mode: nowrap;&quot;&gt;woeker.SetPreConsumeHandler(...)&lt;/div&gt;" style="rounded=0;whiteSpace=wrap;html=1;fontSize=10;" vertex="1" parent="1">
          <mxGeometry x="380" y="10" width="185" height="60" as="geometry" />
        </mxCell>
        <mxCell id="tVDAVDbjrY3sQJ4G50GR-30" value="" style="shape=callout;whiteSpace=wrap;html=1;perimeter=calloutPerimeter;size=8;position=0.24;base=10;position2=0.1;fillColor=#e1d5e7;strokeColor=#9673a6;" vertex="1" parent="1">
          <mxGeometry x="547.5" y="-45" width="96" height="60" as="geometry" />
        </mxCell>
        <mxCell id="tVDAVDbjrY3sQJ4G50GR-31" value="+preTaskHandler" style="rounded=0;whiteSpace=wrap;html=1;fillColor=#9673A6;strokeColor=#FFFFFF;fontSize=8;fontColor=#FFFFFF;align=left;" vertex="1" parent="1">
          <mxGeometry x="552.5" y="-40" width="81" height="10" as="geometry" />
        </mxCell>
        <mxCell id="tVDAVDbjrY3sQJ4G50GR-32" value="+errorHandler" style="rounded=0;whiteSpace=wrap;html=1;fillColor=#9673A6;strokeColor=#FFFFFF;fontSize=8;fontColor=#FFFFFF;align=left;" vertex="1" parent="1">
          <mxGeometry x="552.5" y="-20" width="81" height="10" as="geometry" />
        </mxCell>
        <mxCell id="tVDAVDbjrY3sQJ4G50GR-33" value="+postTaskHandler" style="rounded=0;whiteSpace=wrap;html=1;fillColor=#9673A6;strokeColor=#FFFFFF;fontSize=8;fontColor=#FFFFFF;align=left;" vertex="1" parent="1">
          <mxGeometry x="552.5" y="-30" width="81" height="10" as="geometry" />
        </mxCell>
        <mxCell id="tVDAVDbjrY3sQJ4G50GR-34" value="+preConsumeHandler" style="rounded=0;whiteSpace=wrap;html=1;fillColor=#9673A6;strokeColor=#FFFFFF;fontSize=8;fontColor=#FFFFFF;align=left;" vertex="1" parent="1">
          <mxGeometry x="552.5" y="-10" width="81" height="10" as="geometry" />
        </mxCell>
        <mxCell id="tVDAVDbjrY3sQJ4G50GR-35" value="" style="shape=callout;whiteSpace=wrap;html=1;perimeter=calloutPerimeter;size=8;position=0.24;base=10;position2=0.1;fillColor=#e1d5e7;strokeColor=#9673a6;" vertex="1" parent="1">
          <mxGeometry x="698" y="156" width="70" height="60" as="geometry" />
        </mxCell>
        <mxCell id="tVDAVDbjrY3sQJ4G50GR-36" value="+server" style="rounded=0;whiteSpace=wrap;html=1;fillColor=#9673A6;strokeColor=#FFFFFF;fontSize=8;fontColor=#FFFFFF;align=left;" vertex="1" parent="1">
          <mxGeometry x="703" y="161" width="60" height="10" as="geometry" />
        </mxCell>
        <mxCell id="tVDAVDbjrY3sQJ4G50GR-37" value="+ConsumerTag" style="rounded=0;whiteSpace=wrap;html=1;fillColor=#9673A6;strokeColor=#FFFFFF;fontSize=8;fontColor=#FFFFFF;align=left;" vertex="1" parent="1">
          <mxGeometry x="703" y="171" width="60" height="10" as="geometry" />
        </mxCell>
        <mxCell id="tVDAVDbjrY3sQJ4G50GR-38" value="+Concurrency" style="rounded=0;whiteSpace=wrap;html=1;fillColor=#9673A6;strokeColor=#FFFFFF;fontSize=8;fontColor=#FFFFFF;align=left;" vertex="1" parent="1">
          <mxGeometry x="703" y="181" width="60" height="10" as="geometry" />
        </mxCell>
        <mxCell id="tVDAVDbjrY3sQJ4G50GR-39" value="+Queue" style="rounded=0;whiteSpace=wrap;html=1;fillColor=#9673A6;strokeColor=#FFFFFF;fontSize=8;fontColor=#FFFFFF;align=left;" vertex="1" parent="1">
          <mxGeometry x="703" y="191" width="60" height="10" as="geometry" />
        </mxCell>
        <mxCell id="tVDAVDbjrY3sQJ4G50GR-40" style="rounded=0;orthogonalLoop=1;jettySize=auto;html=1;exitX=0;exitY=0.5;exitDx=0;exitDy=0;entryX=1;entryY=0.5;entryDx=0;entryDy=0;" edge="1" parent="1" source="tVDAVDbjrY3sQJ4G50GR-42" target="tVDAVDbjrY3sQJ4G50GR-43">
          <mxGeometry relative="1" as="geometry" />
        </mxCell>
        <mxCell id="tVDAVDbjrY3sQJ4G50GR-41" style="edgeStyle=orthogonalEdgeStyle;rounded=0;orthogonalLoop=1;jettySize=auto;html=1;exitX=0;exitY=0.75;exitDx=0;exitDy=0;entryX=1;entryY=0.5;entryDx=0;entryDy=0;curved=1;" edge="1" parent="1" source="tVDAVDbjrY3sQJ4G50GR-42" target="tVDAVDbjrY3sQJ4G50GR-50">
          <mxGeometry relative="1" as="geometry" />
        </mxCell>
        <mxCell id="tVDAVDbjrY3sQJ4G50GR-42" value="&lt;span style=&quot;text-wrap-mode: nowrap; background-color: rgb(255, 255, 255);&quot;&gt;worker.Launch()&lt;/span&gt;" style="rounded=0;whiteSpace=wrap;html=1;fontSize=10;" vertex="1" parent="1">
          <mxGeometry x="260" y="115" width="120" height="20" as="geometry" />
        </mxCell>
        <mxCell id="tVDAVDbjrY3sQJ4G50GR-43" value="go" style="ellipse;whiteSpace=wrap;html=1;aspect=fixed;fillColor=#008a00;strokeColor=#005700;fontColor=#ffffff;" vertex="1" parent="1">
          <mxGeometry x="90.00000000000003" y="110" width="30" height="30" as="geometry" />
        </mxCell>
        <mxCell id="tVDAVDbjrY3sQJ4G50GR-44" value="&lt;div style=&quot;text-wrap-mode: nowrap;&quot;&gt;Broker 的地址&lt;/div&gt;&lt;div style=&quot;text-wrap-mode: nowrap;&quot;&gt;Queue 名称&lt;/div&gt;&lt;div style=&quot;text-wrap-mode: nowrap;&quot;&gt;Backend 的地址&lt;/div&gt;&lt;div style=&quot;text-wrap-mode: nowrap;&quot;&gt;AMQP 相关配置&lt;/div&gt;" style="shape=note;whiteSpace=wrap;html=1;backgroundOutline=1;darkOpacity=0.05;size=7;fontSize=10;" vertex="1" parent="1">
          <mxGeometry x="75.00000000000003" y="-20.519999999999996" width="80" height="55" as="geometry" />
        </mxCell>
        <mxCell id="tVDAVDbjrY3sQJ4G50GR-45" style="edgeStyle=orthogonalEdgeStyle;rounded=0;orthogonalLoop=1;jettySize=auto;html=1;exitX=0;exitY=0.25;exitDx=0;exitDy=0;curved=1;entryX=0;entryY=0;entryDx=80;entryDy=31;entryPerimeter=0;" edge="1" parent="1" source="tVDAVDbjrY3sQJ4G50GR-42" target="tVDAVDbjrY3sQJ4G50GR-44">
          <mxGeometry relative="1" as="geometry" />
        </mxCell>
        <mxCell id="tVDAVDbjrY3sQJ4G50GR-46" value="&lt;b style=&quot;font-size: 10px;&quot;&gt;3.1. 打印配置信息&lt;/b&gt;" style="edgeLabel;html=1;align=center;verticalAlign=middle;resizable=0;points=[];labelBackgroundColor=default;" vertex="1" connectable="0" parent="tVDAVDbjrY3sQJ4G50GR-45">
          <mxGeometry x="0.1345" y="-5" relative="1" as="geometry">
            <mxPoint x="-98" y="-82" as="offset" />
          </mxGeometry>
        </mxCell>
        <mxCell id="tVDAVDbjrY3sQJ4G50GR-47" value="&lt;b&gt;3.2. 启动消费任务&lt;/b&gt;" style="text;html=1;align=center;verticalAlign=middle;resizable=0;points=[];autosize=1;strokeColor=none;fillColor=none;fontSize=10;labelBackgroundColor=default;" vertex="1" parent="1">
          <mxGeometry x="-34.99999999999999" y="70" width="100" height="30" as="geometry" />
        </mxCell>
        <mxCell id="tVDAVDbjrY3sQJ4G50GR-48" value="&lt;b&gt;3.3. 信号监听&amp;amp;优雅/强制退出&lt;/b&gt;" style="text;html=1;align=center;verticalAlign=middle;resizable=0;points=[];autosize=1;strokeColor=none;fillColor=none;fontSize=10;labelBackgroundColor=default;" vertex="1" parent="1">
          <mxGeometry x="21" y="275" width="150" height="30" as="geometry" />
        </mxCell>
        <mxCell id="tVDAVDbjrY3sQJ4G50GR-49" value="" style="edgeStyle=orthogonalEdgeStyle;rounded=0;orthogonalLoop=1;jettySize=auto;html=1;" edge="1" parent="1" source="tVDAVDbjrY3sQJ4G50GR-50" target="tVDAVDbjrY3sQJ4G50GR-57">
          <mxGeometry relative="1" as="geometry" />
        </mxCell>
        <mxCell id="tVDAVDbjrY3sQJ4G50GR-50" value="go" style="ellipse;whiteSpace=wrap;html=1;aspect=fixed;fillColor=#008a00;strokeColor=#005700;fontColor=#ffffff;" vertex="1" parent="1">
          <mxGeometry x="90" y="310" width="30" height="30" as="geometry" />
        </mxCell>
        <mxCell id="tVDAVDbjrY3sQJ4G50GR-51" style="rounded=0;orthogonalLoop=1;jettySize=auto;html=1;exitX=1;exitY=0.5;exitDx=0;exitDy=0;entryX=0.5;entryY=1;entryDx=0;entryDy=0;strokeColor=#FF3333;dashed=1;dashPattern=1 2;endArrow=classicThin;endFill=1;" edge="1" parent="1" source="tVDAVDbjrY3sQJ4G50GR-55" target="tVDAVDbjrY3sQJ4G50GR-42">
          <mxGeometry relative="1" as="geometry">
            <Array as="points">
              <mxPoint x="220" y="190" />
            </Array>
          </mxGeometry>
        </mxCell>
        <mxCell id="tVDAVDbjrY3sQJ4G50GR-52" value="err" style="edgeLabel;html=1;align=center;verticalAlign=middle;resizable=0;points=[];fontColor=#FF3333;" vertex="1" connectable="0" parent="tVDAVDbjrY3sQJ4G50GR-51">
          <mxGeometry x="0.1626" y="3" relative="1" as="geometry">
            <mxPoint x="-8" y="9" as="offset" />
          </mxGeometry>
        </mxCell>
        <mxCell id="tVDAVDbjrY3sQJ4G50GR-53" value="Broker" style="ellipse;whiteSpace=wrap;html=1;fillColor=#FFE6CC;strokeColor=#d79b00;" vertex="1" parent="1">
          <mxGeometry x="-200" y="369.99999999999994" width="90" height="50" as="geometry" />
        </mxCell>
        <mxCell id="tVDAVDbjrY3sQJ4G50GR-54" value="&lt;span style=&quot;text-wrap-mode: nowrap;&quot;&gt;broker.StartConsuming(...)&lt;/span&gt;" style="rounded=0;whiteSpace=wrap;html=1;fontSize=10;fillColor=#ffe6cc;strokeColor=#d79b00;labelBackgroundColor=none;" vertex="1" parent="1">
          <mxGeometry x="-123.5" y="115.00000000000003" width="125" height="20" as="geometry" />
        </mxCell>
        <mxCell id="tVDAVDbjrY3sQJ4G50GR-55" value="&lt;span style=&quot;text-wrap-mode: nowrap;&quot;&gt;signalWG.Wait()&lt;/span&gt;" style="rounded=0;whiteSpace=wrap;html=1;fontSize=10;fillColor=#dae8fc;gradientColor=#7ea6e0;strokeColor=#6c8ebf;labelBackgroundColor=none;" vertex="1" parent="1">
          <mxGeometry x="1.4999999999999432" y="206.99999999999997" width="88.5" height="20" as="geometry" />
        </mxCell>
        <mxCell id="tVDAVDbjrY3sQJ4G50GR-56" style="edgeStyle=orthogonalEdgeStyle;rounded=0;orthogonalLoop=1;jettySize=auto;html=1;exitX=0.5;exitY=1;exitDx=0;exitDy=0;entryX=0.5;entryY=0;entryDx=0;entryDy=0;" edge="1" parent="1" source="tVDAVDbjrY3sQJ4G50GR-57" target="tVDAVDbjrY3sQJ4G50GR-66">
          <mxGeometry relative="1" as="geometry" />
        </mxCell>
        <mxCell id="tVDAVDbjrY3sQJ4G50GR-57" value="&lt;span style=&quot;text-wrap-mode: nowrap; background-color: rgb(255, 255, 255);&quot;&gt;接收 SIGINT 和 SIGTERM 信号&lt;/span&gt;" style="rounded=0;whiteSpace=wrap;html=1;fontSize=10;" vertex="1" parent="1">
          <mxGeometry x="25" y="370" width="160" height="20" as="geometry" />
        </mxCell>
        <mxCell id="tVDAVDbjrY3sQJ4G50GR-58" value="" style="edgeStyle=orthogonalEdgeStyle;rounded=0;orthogonalLoop=1;jettySize=auto;html=1;exitX=0;exitY=0.5;exitDx=0;exitDy=0;entryX=1;entryY=0.5;entryDx=0;entryDy=0;" edge="1" parent="1" source="tVDAVDbjrY3sQJ4G50GR-43" target="tVDAVDbjrY3sQJ4G50GR-54">
          <mxGeometry relative="1" as="geometry">
            <mxPoint x="86" y="120" as="sourcePoint" />
            <mxPoint x="35" y="125.00000000000001" as="targetPoint" />
          </mxGeometry>
        </mxCell>
        <mxCell id="tVDAVDbjrY3sQJ4G50GR-59" style="edgeStyle=orthogonalEdgeStyle;rounded=0;orthogonalLoop=1;jettySize=auto;html=1;exitX=1;exitY=0.5;exitDx=0;exitDy=0;" edge="1" parent="1" source="tVDAVDbjrY3sQJ4G50GR-63">
          <mxGeometry relative="1" as="geometry">
            <mxPoint x="29.5" y="125.00000000000001" as="targetPoint" />
          </mxGeometry>
        </mxCell>
        <mxCell id="tVDAVDbjrY3sQJ4G50GR-60" value="&lt;span style=&quot;font-size: 10px;&quot;&gt;yes&lt;/span&gt;" style="edgeLabel;html=1;align=center;verticalAlign=middle;resizable=0;points=[];labelBackgroundColor=default;" vertex="1" connectable="0" parent="tVDAVDbjrY3sQJ4G50GR-59">
          <mxGeometry x="-0.7341" y="-1" relative="1" as="geometry">
            <mxPoint as="offset" />
          </mxGeometry>
        </mxCell>
        <mxCell id="tVDAVDbjrY3sQJ4G50GR-61" style="edgeStyle=orthogonalEdgeStyle;rounded=0;orthogonalLoop=1;jettySize=auto;html=1;exitX=0.5;exitY=1;exitDx=0;exitDy=0;entryX=0;entryY=0.5;entryDx=0;entryDy=0;" edge="1" parent="1" source="tVDAVDbjrY3sQJ4G50GR-63" target="tVDAVDbjrY3sQJ4G50GR-55">
          <mxGeometry relative="1" as="geometry" />
        </mxCell>
        <mxCell id="tVDAVDbjrY3sQJ4G50GR-62" value="&lt;span style=&quot;font-size: 10px;&quot;&gt;no&lt;/span&gt;" style="edgeLabel;html=1;align=center;verticalAlign=middle;resizable=0;points=[];labelBackgroundColor=default;" vertex="1" connectable="0" parent="tVDAVDbjrY3sQJ4G50GR-61">
          <mxGeometry x="-0.6755" y="-1" relative="1" as="geometry">
            <mxPoint x="1" y="7" as="offset" />
          </mxGeometry>
        </mxCell>
        <mxCell id="tVDAVDbjrY3sQJ4G50GR-63" value="retry?" style="rhombus;whiteSpace=wrap;html=1;fontSize=10;" vertex="1" parent="1">
          <mxGeometry x="-106" y="166" width="90" height="29.5" as="geometry" />
        </mxCell>
        <mxCell id="tVDAVDbjrY3sQJ4G50GR-64" style="rounded=0;orthogonalLoop=1;jettySize=auto;html=1;exitX=1;exitY=0.5;exitDx=0;exitDy=0;entryX=0.5;entryY=1;entryDx=0;entryDy=0;dashed=1;dashPattern=1 2;strokeColor=#FF3333;endArrow=classicThin;endFill=1;" edge="1" parent="1" source="tVDAVDbjrY3sQJ4G50GR-66" target="tVDAVDbjrY3sQJ4G50GR-42">
          <mxGeometry relative="1" as="geometry">
            <Array as="points">
              <mxPoint x="270" y="350" />
            </Array>
          </mxGeometry>
        </mxCell>
        <mxCell id="tVDAVDbjrY3sQJ4G50GR-65" value="err" style="edgeLabel;html=1;align=center;verticalAlign=middle;resizable=0;points=[];fontSize=11;fontColor=#FF3333;" vertex="1" connectable="0" parent="tVDAVDbjrY3sQJ4G50GR-64">
          <mxGeometry x="-0.0006" y="-1" relative="1" as="geometry">
            <mxPoint x="-25" y="62" as="offset" />
          </mxGeometry>
        </mxCell>
        <mxCell id="tVDAVDbjrY3sQJ4G50GR-66" value="&lt;span style=&quot;text-wrap-mode: nowrap; background-color: rgb(255, 255, 255);&quot;&gt;第二次收到信号&lt;/span&gt;&lt;div&gt;&lt;span style=&quot;text-wrap-mode: nowrap; background-color: rgb(255, 255, 255);&quot;&gt;强制退出&lt;/span&gt;&lt;/div&gt;" style="rounded=0;whiteSpace=wrap;html=1;fontSize=10;" vertex="1" parent="1">
          <mxGeometry x="135" y="425.72" width="80" height="30" as="geometry" />
        </mxCell>
        <mxCell id="tVDAVDbjrY3sQJ4G50GR-67" value="" style="edgeStyle=orthogonalEdgeStyle;rounded=0;orthogonalLoop=1;jettySize=auto;html=1;exitX=0.5;exitY=1;exitDx=0;exitDy=0;" edge="1" parent="1" source="tVDAVDbjrY3sQJ4G50GR-57" target="tVDAVDbjrY3sQJ4G50GR-68">
          <mxGeometry relative="1" as="geometry">
            <mxPoint x="105" y="390" as="sourcePoint" />
            <mxPoint x="105" y="548" as="targetPoint" />
          </mxGeometry>
        </mxCell>
        <mxCell id="tVDAVDbjrY3sQJ4G50GR-68" value="&lt;span style=&quot;text-wrap-mode: nowrap; background-color: rgb(255, 255, 255);&quot;&gt;第一次收到信号&lt;/span&gt;&lt;div&gt;&lt;span style=&quot;text-wrap-mode: nowrap; background-color: rgb(255, 255, 255);&quot;&gt;优雅退出&lt;/span&gt;&lt;/div&gt;" style="rounded=0;whiteSpace=wrap;html=1;fontSize=10;" vertex="1" parent="1">
          <mxGeometry x="-5" y="425.72" width="80" height="30" as="geometry" />
        </mxCell>
        <mxCell id="tVDAVDbjrY3sQJ4G50GR-69" value="" style="edgeStyle=orthogonalEdgeStyle;rounded=0;orthogonalLoop=1;jettySize=auto;html=1;exitX=0.5;exitY=1;exitDx=0;exitDy=0;" edge="1" parent="1" source="tVDAVDbjrY3sQJ4G50GR-68" target="tVDAVDbjrY3sQJ4G50GR-70">
          <mxGeometry relative="1" as="geometry">
            <mxPoint x="105" y="455" as="sourcePoint" />
            <mxPoint x="105" y="548" as="targetPoint" />
          </mxGeometry>
        </mxCell>
        <mxCell id="tVDAVDbjrY3sQJ4G50GR-70" value="&lt;span style=&quot;text-wrap-mode: nowrap;&quot;&gt;signalWG.Add(1)&lt;/span&gt;" style="rounded=0;whiteSpace=wrap;html=1;fontSize=10;fillColor=#dae8fc;gradientColor=#7ea6e0;strokeColor=#6c8ebf;labelBackgroundColor=none;" vertex="1" parent="1">
          <mxGeometry x="-9.25" y="480" width="88.5" height="20" as="geometry" />
        </mxCell>
        <mxCell id="tVDAVDbjrY3sQJ4G50GR-71" value="" style="edgeStyle=orthogonalEdgeStyle;rounded=0;orthogonalLoop=1;jettySize=auto;html=1;exitX=0.5;exitY=1;exitDx=0;exitDy=0;" edge="1" parent="1" source="tVDAVDbjrY3sQJ4G50GR-70" target="tVDAVDbjrY3sQJ4G50GR-79">
          <mxGeometry relative="1" as="geometry">
            <mxPoint x="105" y="486" as="sourcePoint" />
            <mxPoint x="105" y="548" as="targetPoint" />
          </mxGeometry>
        </mxCell>
        <mxCell id="tVDAVDbjrY3sQJ4G50GR-72" value="循环执行&lt;div&gt;(重试)&lt;/div&gt;" style="text;html=1;align=center;verticalAlign=middle;resizable=0;points=[];autosize=1;strokeColor=none;fillColor=none;fontStyle=2;fontSize=9;fontColor=#808080;" vertex="1" parent="1">
          <mxGeometry x="-40" y="136" width="60" height="40" as="geometry" />
        </mxCell>
        <mxCell id="tVDAVDbjrY3sQJ4G50GR-73" style="rounded=0;orthogonalLoop=1;jettySize=auto;html=1;exitX=1;exitY=0.5;exitDx=0;exitDy=0;entryX=0.5;entryY=1;entryDx=0;entryDy=0;fontColor=#FF3333;strokeColor=#FF3333;dashed=1;dashPattern=1 2;" edge="1" parent="1" source="tVDAVDbjrY3sQJ4G50GR-81" target="tVDAVDbjrY3sQJ4G50GR-42">
          <mxGeometry relative="1" as="geometry">
            <Array as="points">
              <mxPoint x="260" y="540" />
            </Array>
          </mxGeometry>
        </mxCell>
        <mxCell id="tVDAVDbjrY3sQJ4G50GR-74" value="err" style="edgeLabel;html=1;align=center;verticalAlign=middle;resizable=0;points=[];fontColor=#FF3333;" vertex="1" connectable="0" parent="tVDAVDbjrY3sQJ4G50GR-73">
          <mxGeometry x="0.0665" y="-1" relative="1" as="geometry">
            <mxPoint x="-18" y="107" as="offset" />
          </mxGeometry>
        </mxCell>
        <mxCell id="tVDAVDbjrY3sQJ4G50GR-75" value="" style="rounded=0;whiteSpace=wrap;html=1;fillColor=#008a00;strokeColor=none;fontColor=#ffffff;strokeWidth=1;opacity=20;" vertex="1" parent="1">
          <mxGeometry x="-35" y="530" width="145" height="190" as="geometry" />
        </mxCell>
        <mxCell id="tVDAVDbjrY3sQJ4G50GR-76" value="" style="edgeStyle=orthogonalEdgeStyle;rounded=0;orthogonalLoop=1;jettySize=auto;html=1;entryX=0.5;entryY=0;entryDx=0;entryDy=0;" edge="1" parent="1" source="tVDAVDbjrY3sQJ4G50GR-77" target="tVDAVDbjrY3sQJ4G50GR-81">
          <mxGeometry relative="1" as="geometry" />
        </mxCell>
        <mxCell id="tVDAVDbjrY3sQJ4G50GR-77" value="&lt;span style=&quot;text-wrap-mode: nowrap;&quot;&gt;broker.StopConsuming(&amp;nbsp;&lt;/span&gt;&lt;span style=&quot;text-wrap-mode: nowrap;&quot;&gt;)&lt;/span&gt;" style="rounded=0;whiteSpace=wrap;html=1;fontSize=10;fillColor=#ffe6cc;strokeColor=#d79b00;labelBackgroundColor=none;" vertex="1" parent="1">
          <mxGeometry x="-27.5" y="595.72" width="125" height="20" as="geometry" />
        </mxCell>
        <mxCell id="tVDAVDbjrY3sQJ4G50GR-78" style="edgeStyle=orthogonalEdgeStyle;rounded=0;orthogonalLoop=1;jettySize=auto;html=1;entryX=0.5;entryY=0;entryDx=0;entryDy=0;" edge="1" parent="1" source="tVDAVDbjrY3sQJ4G50GR-79" target="tVDAVDbjrY3sQJ4G50GR-77">
          <mxGeometry relative="1" as="geometry" />
        </mxCell>
        <mxCell id="tVDAVDbjrY3sQJ4G50GR-79" value="go" style="ellipse;whiteSpace=wrap;html=1;aspect=fixed;fillColor=#008a00;strokeColor=#005700;fontColor=#ffffff;" vertex="1" parent="1">
          <mxGeometry x="20" y="550" width="30" height="30" as="geometry" />
        </mxCell>
        <mxCell id="tVDAVDbjrY3sQJ4G50GR-80" style="edgeStyle=orthogonalEdgeStyle;rounded=0;orthogonalLoop=1;jettySize=auto;html=1;entryX=0.5;entryY=0;entryDx=0;entryDy=0;" edge="1" parent="1" source="tVDAVDbjrY3sQJ4G50GR-81" target="tVDAVDbjrY3sQJ4G50GR-82">
          <mxGeometry relative="1" as="geometry" />
        </mxCell>
        <mxCell id="tVDAVDbjrY3sQJ4G50GR-81" value="&lt;span style=&quot;text-wrap-mode: nowrap; background-color: rgb(255, 255, 255);&quot;&gt;发送 err&lt;/span&gt;" style="rounded=0;whiteSpace=wrap;html=1;fontSize=10;" vertex="1" parent="1">
          <mxGeometry x="-5" y="635.72" width="80" height="25" as="geometry" />
        </mxCell>
        <mxCell id="tVDAVDbjrY3sQJ4G50GR-82" value="&lt;span style=&quot;text-wrap-mode: nowrap;&quot;&gt;signalWG.Done( )&lt;/span&gt;" style="rounded=0;whiteSpace=wrap;html=1;fontSize=10;fillColor=#dae8fc;gradientColor=#7ea6e0;strokeColor=#6c8ebf;labelBackgroundColor=none;" vertex="1" parent="1">
          <mxGeometry x="-9.25" y="685.72" width="88.5" height="20" as="geometry" />
        </mxCell>
        <mxCell id="tVDAVDbjrY3sQJ4G50GR-83" style="edgeStyle=orthogonalEdgeStyle;rounded=0;orthogonalLoop=1;jettySize=auto;html=1;" edge="1" parent="1" source="tVDAVDbjrY3sQJ4G50GR-84" target="tVDAVDbjrY3sQJ4G50GR-89">
          <mxGeometry relative="1" as="geometry" />
        </mxCell>
        <mxCell id="tVDAVDbjrY3sQJ4G50GR-84" value="&lt;span style=&quot;text-wrap-mode: nowrap;&quot;&gt;consumingWG.Add(1)&lt;/span&gt;" style="rounded=0;whiteSpace=wrap;html=1;fontSize=10;fillColor=#ffcd28;gradientColor=#ffa500;strokeColor=#d79b00;labelBackgroundColor=none;" vertex="1" parent="1">
          <mxGeometry x="-568.5" y="-41.150000000000006" width="120" height="20" as="geometry" />
        </mxCell>
        <mxCell id="tVDAVDbjrY3sQJ4G50GR-85" value="&lt;span style=&quot;text-wrap-mode: nowrap;&quot;&gt;consumingWG.Done( )&lt;/span&gt;" style="rounded=0;whiteSpace=wrap;html=1;fontSize=10;fillColor=#ffcd28;gradientColor=#ffa500;strokeColor=#d79b00;labelBackgroundColor=none;" vertex="1" parent="1">
          <mxGeometry x="-562.2" y="605.72" width="120" height="20" as="geometry" />
        </mxCell>
        <mxCell id="tVDAVDbjrY3sQJ4G50GR-86" style="edgeStyle=orthogonalEdgeStyle;rounded=0;orthogonalLoop=1;jettySize=auto;html=1;exitX=1.003;exitY=0.336;exitDx=0;exitDy=0;entryX=0;entryY=0.5;entryDx=0;entryDy=0;exitPerimeter=0;" edge="1" parent="1" source="tVDAVDbjrY3sQJ4G50GR-2" target="tVDAVDbjrY3sQJ4G50GR-63">
          <mxGeometry relative="1" as="geometry" />
        </mxCell>
        <mxCell id="tVDAVDbjrY3sQJ4G50GR-87" value="出错就重试" style="edgeLabel;html=1;align=center;verticalAlign=middle;resizable=0;points=[];" vertex="1" connectable="0" parent="tVDAVDbjrY3sQJ4G50GR-86">
          <mxGeometry x="-0.3983" relative="1" as="geometry">
            <mxPoint x="16" as="offset" />
          </mxGeometry>
        </mxCell>
        <mxCell id="tVDAVDbjrY3sQJ4G50GR-88" style="edgeStyle=orthogonalEdgeStyle;rounded=0;orthogonalLoop=1;jettySize=auto;html=1;entryX=0.5;entryY=0;entryDx=0;entryDy=0;" edge="1" parent="1" source="tVDAVDbjrY3sQJ4G50GR-89" target="tVDAVDbjrY3sQJ4G50GR-8">
          <mxGeometry relative="1" as="geometry">
            <mxPoint x="-483" y="65.72" as="targetPoint" />
          </mxGeometry>
        </mxCell>
        <mxCell id="tVDAVDbjrY3sQJ4G50GR-89" value="&lt;span style=&quot;text-wrap-mode: nowrap; background-color: rgb(255, 255, 255);&quot;&gt;执行基类方法、redis 连接检查……&lt;/span&gt;" style="rounded=0;whiteSpace=wrap;html=1;fontSize=10;" vertex="1" parent="1">
          <mxGeometry x="-600.25" y="4.599999999999996" width="183.5" height="20" as="geometry" />
        </mxCell>
        <mxCell id="tVDAVDbjrY3sQJ4G50GR-90" style="edgeStyle=orthogonalEdgeStyle;rounded=0;orthogonalLoop=1;jettySize=auto;html=1;exitX=0;exitY=0.5;exitDx=0;exitDy=0;strokeColor=#D79B00;shape=link;" edge="1" parent="1" source="tVDAVDbjrY3sQJ4G50GR-54">
          <mxGeometry relative="1" as="geometry">
            <mxPoint x="-260" y="125" as="targetPoint" />
          </mxGeometry>
        </mxCell>
        <mxCell id="tVDAVDbjrY3sQJ4G50GR-91" style="edgeStyle=orthogonalEdgeStyle;rounded=0;orthogonalLoop=1;jettySize=auto;html=1;exitX=0;exitY=0.5;exitDx=0;exitDy=0;dashed=1;dashPattern=1 2;strokeColor=#B85450;entryX=1;entryY=0.5;entryDx=0;entryDy=0;" edge="1" parent="1" source="tVDAVDbjrY3sQJ4G50GR-92" target="tVDAVDbjrY3sQJ4G50GR-146">
          <mxGeometry relative="1" as="geometry">
            <mxPoint x="-720" y="506.72" as="targetPoint" />
            <Array as="points">
              <mxPoint x="-750" y="124.72" />
              <mxPoint x="-750" y="375.72" />
            </Array>
          </mxGeometry>
        </mxCell>
        <mxCell id="tVDAVDbjrY3sQJ4G50GR-92" value="" style="rounded=0;whiteSpace=wrap;html=1;fillColor=#f8cecc;strokeColor=#B85450;gradientColor=#ea6b66;" vertex="1" parent="1">
          <mxGeometry x="-662.32" y="114.72" width="136" height="20" as="geometry" />
        </mxCell>
        <mxCell id="tVDAVDbjrY3sQJ4G50GR-93" value="" style="rounded=0;whiteSpace=wrap;html=1;fontSize=10;fillColor=none;fontColor=#ffffff;strokeColor=#6F0000;" vertex="1" parent="1">
          <mxGeometry x="-655.32" y="119.72" width="10" height="10" as="geometry" />
        </mxCell>
        <mxCell id="tVDAVDbjrY3sQJ4G50GR-94" value="" style="rounded=0;whiteSpace=wrap;html=1;fontSize=10;fillColor=none;fontColor=#ffffff;strokeColor=#6F0000;" vertex="1" parent="1">
          <mxGeometry x="-635.07" y="119.72" width="10" height="10" as="geometry" />
        </mxCell>
        <mxCell id="tVDAVDbjrY3sQJ4G50GR-95" value="" style="rounded=0;whiteSpace=wrap;html=1;fontSize=10;fillColor=none;fontColor=#ffffff;strokeColor=#6F0000;" vertex="1" parent="1">
          <mxGeometry x="-613.32" y="119.72" width="10" height="10" as="geometry" />
        </mxCell>
        <mxCell id="tVDAVDbjrY3sQJ4G50GR-96" value="" style="rounded=0;whiteSpace=wrap;html=1;fontSize=10;fillColor=none;fontColor=#ffffff;strokeColor=#6F0000;" vertex="1" parent="1">
          <mxGeometry x="-595.32" y="119.72" width="10" height="10" as="geometry" />
        </mxCell>
        <mxCell id="tVDAVDbjrY3sQJ4G50GR-97" value="" style="rounded=0;whiteSpace=wrap;html=1;fontSize=10;fillColor=none;fontColor=#ffffff;strokeColor=#6F0000;" vertex="1" parent="1">
          <mxGeometry x="-578.32" y="119.72" width="10" height="10" as="geometry" />
        </mxCell>
        <mxCell id="tVDAVDbjrY3sQJ4G50GR-98" value="" style="html=1;shadow=0;dashed=0;align=center;verticalAlign=middle;shape=mxgraph.arrows2.arrow;dy=0.49;dx=12.34;notch=0;rotation=-180;strokeColor=none;" vertex="1" parent="1">
          <mxGeometry x="-564.82" y="119.72" width="25" height="10" as="geometry" />
        </mxCell>
        <mxCell id="tVDAVDbjrY3sQJ4G50GR-99" value="deliveries" style="text;html=1;align=center;verticalAlign=middle;resizable=0;points=[];autosize=1;strokeColor=none;fillColor=none;" vertex="1" parent="1">
          <mxGeometry x="-645.32" y="93.72" width="70" height="30" as="geometry" />
        </mxCell>
        <mxCell id="tVDAVDbjrY3sQJ4G50GR-100" value="pool" style="text;html=1;align=center;verticalAlign=middle;resizable=0;points=[];autosize=1;strokeColor=none;fillColor=none;" vertex="1" parent="1">
          <mxGeometry x="-469" y="93.72" width="50" height="30" as="geometry" />
        </mxCell>
        <mxCell id="tVDAVDbjrY3sQJ4G50GR-101" value="" style="rounded=0;whiteSpace=wrap;html=1;fillColor=#e6d0de;strokeColor=#996185;gradientColor=#d5739d;" vertex="1" parent="1">
          <mxGeometry x="-478" y="115.72" width="130" height="20" as="geometry" />
        </mxCell>
        <mxCell id="tVDAVDbjrY3sQJ4G50GR-102" value="" style="rounded=0;whiteSpace=wrap;html=1;fontSize=10;fillColor=#996185;fontColor=#ffffff;strokeColor=none;" vertex="1" parent="1">
          <mxGeometry x="-471" y="120.72" width="10" height="10" as="geometry" />
        </mxCell>
        <mxCell id="tVDAVDbjrY3sQJ4G50GR-103" value="" style="rounded=0;whiteSpace=wrap;html=1;fontSize=10;fillColor=#996185;fontColor=#ffffff;strokeColor=none;" vertex="1" parent="1">
          <mxGeometry x="-450.75" y="120.72" width="10" height="10" as="geometry" />
        </mxCell>
        <mxCell id="tVDAVDbjrY3sQJ4G50GR-104" value="" style="rounded=0;whiteSpace=wrap;html=1;fontSize=10;fillColor=#996185;fontColor=#ffffff;strokeColor=none;" vertex="1" parent="1">
          <mxGeometry x="-429" y="120.72" width="10" height="10" as="geometry" />
        </mxCell>
        <mxCell id="tVDAVDbjrY3sQJ4G50GR-105" value="" style="rounded=0;whiteSpace=wrap;html=1;fontSize=10;fillColor=#996185;fontColor=#ffffff;strokeColor=none;" vertex="1" parent="1">
          <mxGeometry x="-411" y="120.72" width="10" height="10" as="geometry" />
        </mxCell>
        <mxCell id="tVDAVDbjrY3sQJ4G50GR-106" value="" style="rounded=0;whiteSpace=wrap;html=1;fontSize=10;fillColor=#996185;fontColor=#ffffff;strokeColor=none;" vertex="1" parent="1">
          <mxGeometry x="-394" y="120.72" width="10" height="10" as="geometry" />
        </mxCell>
        <mxCell id="tVDAVDbjrY3sQJ4G50GR-107" style="edgeStyle=orthogonalEdgeStyle;rounded=0;orthogonalLoop=1;jettySize=auto;html=1;exitX=0.5;exitY=1;exitDx=0;exitDy=0;entryX=0.5;entryY=0;entryDx=0;entryDy=0;" edge="1" parent="1" source="tVDAVDbjrY3sQJ4G50GR-108" target="tVDAVDbjrY3sQJ4G50GR-138">
          <mxGeometry relative="1" as="geometry" />
        </mxCell>
        <mxCell id="tVDAVDbjrY3sQJ4G50GR-108" value="" style="rounded=0;whiteSpace=wrap;html=1;fillColor=#008a00;strokeColor=none;fontColor=#ffffff;strokeWidth=1;opacity=20;" vertex="1" parent="1">
          <mxGeometry x="-468.43" y="215.72" width="158.43" height="180" as="geometry" />
        </mxCell>
        <mxCell id="tVDAVDbjrY3sQJ4G50GR-164" style="edgeStyle=orthogonalEdgeStyle;rounded=0;orthogonalLoop=1;jettySize=auto;html=1;exitX=0.5;exitY=1;exitDx=0;exitDy=0;entryX=0.5;entryY=0;entryDx=0;entryDy=0;" edge="1" parent="1" source="tVDAVDbjrY3sQJ4G50GR-110" target="tVDAVDbjrY3sQJ4G50GR-112">
          <mxGeometry relative="1" as="geometry" />
        </mxCell>
        <mxCell id="tVDAVDbjrY3sQJ4G50GR-110" value="go" style="ellipse;whiteSpace=wrap;html=1;aspect=fixed;fillColor=#008a00;strokeColor=#005700;fontColor=#ffffff;" vertex="1" parent="1">
          <mxGeometry x="-397.43" y="226.19000000000003" width="30" height="30" as="geometry" />
        </mxCell>
        <mxCell id="tVDAVDbjrY3sQJ4G50GR-162" style="edgeStyle=orthogonalEdgeStyle;rounded=0;orthogonalLoop=1;jettySize=auto;html=1;exitX=0.5;exitY=1;exitDx=0;exitDy=0;entryX=0.5;entryY=0;entryDx=0;entryDy=0;" edge="1" parent="1" source="tVDAVDbjrY3sQJ4G50GR-112" target="tVDAVDbjrY3sQJ4G50GR-161">
          <mxGeometry relative="1" as="geometry" />
        </mxCell>
        <mxCell id="tVDAVDbjrY3sQJ4G50GR-163" value="signature" style="edgeLabel;html=1;align=center;verticalAlign=middle;resizable=0;points=[];" vertex="1" connectable="0" parent="tVDAVDbjrY3sQJ4G50GR-162">
          <mxGeometry x="-0.2497" relative="1" as="geometry">
            <mxPoint as="offset" />
          </mxGeometry>
        </mxCell>
        <mxCell id="tVDAVDbjrY3sQJ4G50GR-112" value="&lt;span style=&quot;text-wrap-mode: nowrap; background-color: rgb(255, 255, 255);&quot;&gt;nextDelayedTask&lt;/span&gt;" style="rounded=0;whiteSpace=wrap;html=1;fontSize=10;" vertex="1" parent="1">
          <mxGeometry x="-442.19" y="275" width="120" height="20" as="geometry" />
        </mxCell>
        <mxCell id="tVDAVDbjrY3sQJ4G50GR-113" value="&lt;b&gt;4. 核心消费逻辑&lt;/b&gt;" style="text;html=1;align=center;verticalAlign=middle;resizable=0;points=[];autosize=1;strokeColor=none;fillColor=none;fontSize=10;labelBackgroundColor=default;" vertex="1" parent="1">
          <mxGeometry x="-737.13" y="-84.28" width="90" height="30" as="geometry" />
        </mxCell>
        <mxCell id="tVDAVDbjrY3sQJ4G50GR-114" value="&lt;b&gt;4.1. 初始化任务处理管道、信号槽位&lt;/b&gt;" style="text;html=1;align=center;verticalAlign=middle;resizable=0;points=[];autosize=1;strokeColor=none;fillColor=none;fontSize=10;labelBackgroundColor=default;" vertex="1" parent="1">
          <mxGeometry x="-737.13" y="67.72" width="180" height="30" as="geometry" />
        </mxCell>
        <mxCell id="tVDAVDbjrY3sQJ4G50GR-115" style="edgeStyle=orthogonalEdgeStyle;rounded=0;orthogonalLoop=1;jettySize=auto;html=1;exitX=0.5;exitY=1;exitDx=0;exitDy=0;entryX=0.5;entryY=0;entryDx=0;entryDy=0;" edge="1" parent="1" source="tVDAVDbjrY3sQJ4G50GR-116" target="tVDAVDbjrY3sQJ4G50GR-138">
          <mxGeometry relative="1" as="geometry" />
        </mxCell>
        <mxCell id="tVDAVDbjrY3sQJ4G50GR-116" value="" style="rounded=0;whiteSpace=wrap;html=1;fillColor=#008a00;strokeColor=none;fontColor=#ffffff;strokeWidth=1;opacity=20;" vertex="1" parent="1">
          <mxGeometry x="-728.43" y="215.72" width="198.43" height="180" as="geometry" />
        </mxCell>
        <mxCell id="tVDAVDbjrY3sQJ4G50GR-117" style="edgeStyle=orthogonalEdgeStyle;rounded=0;orthogonalLoop=1;jettySize=auto;html=1;exitX=0.5;exitY=1;exitDx=0;exitDy=0;entryX=0.5;entryY=0;entryDx=0;entryDy=0;" edge="1" parent="1" source="tVDAVDbjrY3sQJ4G50GR-118">
          <mxGeometry relative="1" as="geometry">
            <mxPoint x="-663.75" y="296.1900000000003" as="targetPoint" />
          </mxGeometry>
        </mxCell>
        <mxCell id="tVDAVDbjrY3sQJ4G50GR-118" value="go" style="ellipse;whiteSpace=wrap;html=1;aspect=fixed;fillColor=#008a00;strokeColor=#005700;fontColor=#ffffff;" vertex="1" parent="1">
          <mxGeometry x="-678.7499999999999" y="226.19000000000003" width="30" height="30" as="geometry" />
        </mxCell>
        <mxCell id="tVDAVDbjrY3sQJ4G50GR-119" value="&lt;b&gt;4.2. 主消费协程&lt;/b&gt;" style="text;html=1;align=center;verticalAlign=middle;resizable=0;points=[];autosize=1;strokeColor=none;fillColor=none;fontSize=10;labelBackgroundColor=default;" vertex="1" parent="1">
          <mxGeometry x="-737.56" y="185.72" width="90" height="30" as="geometry" />
        </mxCell>
        <mxCell id="tVDAVDbjrY3sQJ4G50GR-120" value="" style="html=1;shadow=0;dashed=0;align=center;verticalAlign=middle;shape=mxgraph.arrows2.arrow;dy=0.49;dx=12.34;notch=0;rotation=-180;strokeColor=none;" vertex="1" parent="1">
          <mxGeometry x="-376" y="120.72" width="25" height="10" as="geometry" />
        </mxCell>
        <mxCell id="tVDAVDbjrY3sQJ4G50GR-121" value="" style="edgeStyle=orthogonalEdgeStyle;rounded=0;orthogonalLoop=1;jettySize=auto;html=1;dashed=1;dashPattern=1 2;endArrow=classicThin;endFill=1;" edge="1" parent="1" source="tVDAVDbjrY3sQJ4G50GR-122" target="tVDAVDbjrY3sQJ4G50GR-125">
          <mxGeometry relative="1" as="geometry" />
        </mxCell>
        <mxCell id="tVDAVDbjrY3sQJ4G50GR-122" value="&lt;span style=&quot;text-wrap-mode: nowrap; background-color: rgb(255, 255, 255);&quot;&gt;pool 有余量&lt;/span&gt;" style="rounded=0;whiteSpace=wrap;html=1;fontSize=10;" vertex="1" parent="1">
          <mxGeometry x="-694.33" y="295.72" width="60" height="20" as="geometry" />
        </mxCell>
        <mxCell id="tVDAVDbjrY3sQJ4G50GR-123" value="" style="rounded=0;whiteSpace=wrap;html=1;fontSize=10;fillColor=#996185;fontColor=#ffffff;strokeColor=none;" vertex="1" parent="1">
          <mxGeometry x="-669.3299999999999" y="310.97" width="10" height="10" as="geometry" />
        </mxCell>
        <mxCell id="tVDAVDbjrY3sQJ4G50GR-124" style="edgeStyle=orthogonalEdgeStyle;rounded=0;orthogonalLoop=1;jettySize=auto;html=1;exitX=0.5;exitY=0;exitDx=0;exitDy=0;" edge="1" parent="1" source="tVDAVDbjrY3sQJ4G50GR-125">
          <mxGeometry relative="1" as="geometry">
            <mxPoint x="-660" y="270" as="targetPoint" />
            <Array as="points">
              <mxPoint x="-573" y="270" />
            </Array>
          </mxGeometry>
        </mxCell>
        <mxCell id="tVDAVDbjrY3sQJ4G50GR-125" value="&lt;span style=&quot;text-wrap-mode: nowrap; background-color: rgb(255, 255, 255);&quot;&gt;nextTask&lt;/span&gt;" style="rounded=0;whiteSpace=wrap;html=1;fontSize=10;" vertex="1" parent="1">
          <mxGeometry x="-604.39" y="295.72" width="61.75" height="20" as="geometry" />
        </mxCell>
        <mxCell id="tVDAVDbjrY3sQJ4G50GR-126" style="edgeStyle=orthogonalEdgeStyle;rounded=0;orthogonalLoop=1;jettySize=auto;html=1;exitX=1;exitY=0.5;exitDx=0;exitDy=0;entryX=1;entryY=0.5;entryDx=0;entryDy=0;strokeColor=#B85450;dashed=1;dashPattern=1 2;" edge="1" parent="1" source="tVDAVDbjrY3sQJ4G50GR-127" target="tVDAVDbjrY3sQJ4G50GR-92">
          <mxGeometry relative="1" as="geometry">
            <Array as="points">
              <mxPoint x="-510" y="330.72" />
              <mxPoint x="-510" y="124.72" />
            </Array>
          </mxGeometry>
        </mxCell>
        <mxCell id="tVDAVDbjrY3sQJ4G50GR-127" value="" style="rounded=0;whiteSpace=wrap;html=1;fontSize=10;fillColor=#B85450;fontColor=#ffffff;strokeColor=none;" vertex="1" parent="1">
          <mxGeometry x="-576.01" y="325.22" width="10" height="10" as="geometry" />
        </mxCell>
        <mxCell id="tVDAVDbjrY3sQJ4G50GR-128" style="edgeStyle=orthogonalEdgeStyle;rounded=0;orthogonalLoop=1;jettySize=auto;html=1;exitX=0.5;exitY=0;exitDx=0;exitDy=0;entryX=0.5;entryY=1;entryDx=0;entryDy=0;endArrow=classicThin;endFill=1;strokeColor=#B85450;" edge="1" parent="1" source="tVDAVDbjrY3sQJ4G50GR-129" target="tVDAVDbjrY3sQJ4G50GR-127">
          <mxGeometry relative="1" as="geometry" />
        </mxCell>
        <mxCell id="tVDAVDbjrY3sQJ4G50GR-129" value="&lt;span style=&quot;text-wrap-mode: nowrap;&quot;&gt;Redis&lt;/span&gt;&lt;div&gt;&lt;span style=&quot;text-wrap-mode: nowrap;&quot;&gt;普通队列&lt;/span&gt;&lt;/div&gt;" style="rounded=0;whiteSpace=wrap;html=1;fillColor=#f8cecc;gradientColor=#ea6b66;strokeColor=#b85450;" vertex="1" parent="1">
          <mxGeometry x="-595.3199999999999" y="350.47" width="48.63" height="35.25" as="geometry" />
        </mxCell>
        <mxCell id="tVDAVDbjrY3sQJ4G50GR-130" value="&lt;b&gt;4.3. 延迟任务消费协程&lt;/b&gt;" style="text;html=1;align=center;verticalAlign=middle;resizable=0;points=[];autosize=1;strokeColor=none;fillColor=none;fontSize=10;labelBackgroundColor=default;" vertex="1" parent="1">
          <mxGeometry x="-505.75" y="185.72" width="120" height="30" as="geometry" />
        </mxCell>
        <mxCell id="tVDAVDbjrY3sQJ4G50GR-131" style="edgeStyle=orthogonalEdgeStyle;rounded=0;orthogonalLoop=1;jettySize=auto;html=1;strokeColor=#B85450;dashed=1;dashPattern=1 2;" edge="1" parent="1" source="tVDAVDbjrY3sQJ4G50GR-132" target="tVDAVDbjrY3sQJ4G50GR-129">
          <mxGeometry relative="1" as="geometry" />
        </mxCell>
        <mxCell id="tVDAVDbjrY3sQJ4G50GR-132" value="&lt;span style=&quot;text-wrap-mode: nowrap;&quot;&gt;Redis&lt;/span&gt;&lt;div&gt;&lt;span style=&quot;text-wrap-mode: nowrap;&quot;&gt;延迟队列&lt;/span&gt;&lt;/div&gt;" style="rounded=0;whiteSpace=wrap;html=1;fillColor=#f8cecc;gradientColor=#ea6b66;strokeColor=#b85450;" vertex="1" parent="1">
          <mxGeometry x="-406.74" y="350.47" width="48.63" height="35.25" as="geometry" />
        </mxCell>
        <mxCell id="tVDAVDbjrY3sQJ4G50GR-134" value="&lt;span style=&quot;text-wrap-mode: nowrap;&quot;&gt;delayedWG.Add(1)&lt;/span&gt;" style="rounded=0;whiteSpace=wrap;html=1;fontSize=10;fillColor=#fff2cc;gradientColor=#ffd966;strokeColor=#d6b656;labelBackgroundColor=none;" vertex="1" parent="1">
          <mxGeometry x="-372.19" y="190.72" width="101.43" height="20" as="geometry" />
        </mxCell>
        <mxCell id="tVDAVDbjrY3sQJ4G50GR-135" value="&lt;span style=&quot;text-wrap-mode: nowrap;&quot;&gt;delayedWG.Done( )&lt;/span&gt;" style="rounded=0;whiteSpace=wrap;html=1;fontSize=10;fillColor=#fff2cc;gradientColor=#ffd966;strokeColor=#d6b656;labelBackgroundColor=none;" vertex="1" parent="1">
          <mxGeometry x="-562.2" y="585.72" width="120" height="20" as="geometry" />
        </mxCell>
        <mxCell id="tVDAVDbjrY3sQJ4G50GR-136" value="&lt;b&gt;4.4. 任务处理主循环&lt;/b&gt;" style="text;html=1;align=center;verticalAlign=middle;resizable=0;points=[];autosize=1;strokeColor=none;fillColor=none;fontSize=10;labelBackgroundColor=default;" vertex="1" parent="1">
          <mxGeometry x="-1029.9999999999998" y="325.72" width="110" height="30" as="geometry" />
        </mxCell>
        <mxCell id="tVDAVDbjrY3sQJ4G50GR-137" style="edgeStyle=orthogonalEdgeStyle;rounded=0;orthogonalLoop=1;jettySize=auto;html=1;entryX=0.5;entryY=0;entryDx=0;entryDy=0;" edge="1" parent="1" source="tVDAVDbjrY3sQJ4G50GR-138" target="tVDAVDbjrY3sQJ4G50GR-139">
          <mxGeometry relative="1" as="geometry" />
        </mxCell>
        <mxCell id="tVDAVDbjrY3sQJ4G50GR-138" value="&lt;span style=&quot;text-wrap-mode: nowrap;&quot;&gt;b.consume(...)&lt;/span&gt;" style="rounded=0;whiteSpace=wrap;html=1;fontSize=10;fillColor=#ffe6cc;strokeColor=#d79b00;labelBackgroundColor=none;" vertex="1" parent="1">
          <mxGeometry x="-564.7" y="496.44000000000005" width="125" height="20" as="geometry" />
        </mxCell>
        <mxCell id="tVDAVDbjrY3sQJ4G50GR-139" value="&lt;span style=&quot;text-wrap-mode: nowrap;&quot;&gt;processingWG.Wait( )&lt;/span&gt;" style="rounded=0;whiteSpace=wrap;html=1;fontSize=10;fillColor=#f5f5f5;gradientColor=#b3b3b3;strokeColor=#666666;labelBackgroundColor=none;" vertex="1" parent="1">
          <mxGeometry x="-562.2" y="565.72" width="120" height="20" as="geometry" />
        </mxCell>
        <mxCell id="tVDAVDbjrY3sQJ4G50GR-140" value="" style="rounded=0;whiteSpace=wrap;html=1;fontSize=10;fillColor=#B85450;fontColor=#ffffff;strokeColor=none;" vertex="1" parent="1">
          <mxGeometry x="-478" y="363.09000000000003" width="10" height="10" as="geometry" />
        </mxCell>
        <mxCell id="tVDAVDbjrY3sQJ4G50GR-141" style="edgeStyle=orthogonalEdgeStyle;rounded=0;orthogonalLoop=1;jettySize=auto;html=1;entryX=0.5;entryY=0;entryDx=0;entryDy=0;" edge="1" parent="1" source="tVDAVDbjrY3sQJ4G50GR-142" target="tVDAVDbjrY3sQJ4G50GR-143">
          <mxGeometry relative="1" as="geometry" />
        </mxCell>
        <mxCell id="tVDAVDbjrY3sQJ4G50GR-142" value="&lt;span style=&quot;text-wrap-mode: nowrap;&quot;&gt;processingWG.Add(1)&lt;/span&gt;" style="rounded=0;whiteSpace=wrap;html=1;fontSize=10;fillColor=#f5f5f5;gradientColor=#b3b3b3;strokeColor=#666666;labelBackgroundColor=none;" vertex="1" parent="1">
          <mxGeometry x="-975" y="415.22" width="120" height="20" as="geometry" />
        </mxCell>
        <mxCell id="tVDAVDbjrY3sQJ4G50GR-143" value="go" style="ellipse;whiteSpace=wrap;html=1;aspect=fixed;fillColor=#008a00;strokeColor=#005700;fontColor=#ffffff;" vertex="1" parent="1">
          <mxGeometry x="-930" y="460.47" width="30" height="30" as="geometry" />
        </mxCell>
        <mxCell id="tVDAVDbjrY3sQJ4G50GR-144" value="&lt;span style=&quot;text-wrap-mode: nowrap;&quot;&gt;processingWG.Done( )&lt;/span&gt;" style="rounded=0;whiteSpace=wrap;html=1;fontSize=10;fillColor=#f5f5f5;gradientColor=#b3b3b3;strokeColor=#666666;labelBackgroundColor=none;" vertex="1" parent="1">
          <mxGeometry x="-975" y="551.44" width="120" height="20" as="geometry" />
        </mxCell>
        <mxCell id="tVDAVDbjrY3sQJ4G50GR-145" value="" style="edgeStyle=orthogonalEdgeStyle;rounded=0;orthogonalLoop=1;jettySize=auto;html=1;" edge="1" parent="1" source="tVDAVDbjrY3sQJ4G50GR-143">
          <mxGeometry relative="1" as="geometry">
            <mxPoint x="-915" y="490.72" as="sourcePoint" />
            <mxPoint x="-914.9655172413793" y="510.47" as="targetPoint" />
          </mxGeometry>
        </mxCell>
        <mxCell id="tVDAVDbjrY3sQJ4G50GR-146" value="" style="rounded=0;whiteSpace=wrap;html=1;fontSize=10;fillColor=#B85450;fontColor=#ffffff;strokeColor=none;" vertex="1" parent="1">
          <mxGeometry x="-870" y="370.72" width="10" height="10" as="geometry" />
        </mxCell>
        <mxCell id="tVDAVDbjrY3sQJ4G50GR-147" style="edgeStyle=orthogonalEdgeStyle;rounded=0;orthogonalLoop=1;jettySize=auto;html=1;entryX=0.5;entryY=0;entryDx=0;entryDy=0;" edge="1" parent="1" source="tVDAVDbjrY3sQJ4G50GR-148" target="tVDAVDbjrY3sQJ4G50GR-142">
          <mxGeometry relative="1" as="geometry" />
        </mxCell>
        <mxCell id="tVDAVDbjrY3sQJ4G50GR-148" value="&lt;span style=&quot;text-wrap-mode: nowrap; background-color: rgb(255, 255, 255);&quot;&gt;获取 d&lt;/span&gt;" style="rounded=0;whiteSpace=wrap;html=1;fontSize=10;" vertex="1" parent="1">
          <mxGeometry x="-945.8800000000001" y="365.72" width="61.75" height="20" as="geometry" />
        </mxCell>
        <mxCell id="tVDAVDbjrY3sQJ4G50GR-149" style="edgeStyle=orthogonalEdgeStyle;rounded=0;orthogonalLoop=1;jettySize=auto;html=1;" edge="1" parent="1" source="tVDAVDbjrY3sQJ4G50GR-150" target="tVDAVDbjrY3sQJ4G50GR-144">
          <mxGeometry relative="1" as="geometry" />
        </mxCell>
        <mxCell id="tVDAVDbjrY3sQJ4G50GR-150" value="&lt;span style=&quot;text-wrap-mode: nowrap;&quot;&gt;Process(d)&lt;/span&gt;" style="rounded=0;whiteSpace=wrap;html=1;fontSize=10;fillColor=#e1d5e7;strokeColor=#9673a6;" vertex="1" parent="1">
          <mxGeometry x="-945.8699999999999" y="510.72" width="61.75" height="20" as="geometry" />
        </mxCell>
        <mxCell id="tVDAVDbjrY3sQJ4G50GR-151" style="edgeStyle=orthogonalEdgeStyle;rounded=0;orthogonalLoop=1;jettySize=auto;html=1;exitX=0;exitY=0.5;exitDx=0;exitDy=0;entryX=1;entryY=0.561;entryDx=0;entryDy=0;entryPerimeter=0;strokeColor=#D79B00;shape=link;" edge="1" parent="1" source="tVDAVDbjrY3sQJ4G50GR-138" target="tVDAVDbjrY3sQJ4G50GR-3">
          <mxGeometry relative="1" as="geometry" />
        </mxCell>
        <mxCell id="tVDAVDbjrY3sQJ4G50GR-152" value="&lt;span style=&quot;text-wrap-mode: nowrap;&quot;&gt;delayedWG.Wait( )&lt;/span&gt;" style="rounded=0;whiteSpace=wrap;html=1;fontSize=10;fillColor=#fff2cc;gradientColor=#ffd966;strokeColor=#d6b656;labelBackgroundColor=none;" vertex="1" parent="1">
          <mxGeometry x="-200" y="623.58" width="120" height="20" as="geometry" />
        </mxCell>
        <mxCell id="tVDAVDbjrY3sQJ4G50GR-153" value="&lt;span style=&quot;text-wrap-mode: nowrap;&quot;&gt;consumingWG.Wait( )&lt;/span&gt;" style="rounded=0;whiteSpace=wrap;html=1;fontSize=10;fillColor=#ffcd28;gradientColor=#ffa500;strokeColor=#d79b00;labelBackgroundColor=none;" vertex="1" parent="1">
          <mxGeometry x="-200" y="643.58" width="120" height="20" as="geometry" />
        </mxCell>
        <mxCell id="tVDAVDbjrY3sQJ4G50GR-154" value="&lt;span style=&quot;text-wrap-mode: nowrap;&quot;&gt;retryStopChan &amp;lt;- 1&lt;/span&gt;" style="rounded=0;whiteSpace=wrap;html=1;fontSize=10;labelBackgroundColor=none;" vertex="1" parent="1">
          <mxGeometry x="-200" y="582.36" width="120" height="20" as="geometry" />
        </mxCell>
        <mxCell id="tVDAVDbjrY3sQJ4G50GR-155" value="&lt;span style=&quot;text-wrap-mode: nowrap;&quot;&gt;retry=false&lt;/span&gt;" style="rounded=0;whiteSpace=wrap;html=1;fontSize=10;labelBackgroundColor=none;" vertex="1" parent="1">
          <mxGeometry x="-200" y="562.36" width="120" height="20" as="geometry" />
        </mxCell>
        <mxCell id="tVDAVDbjrY3sQJ4G50GR-156" value="&lt;span style=&quot;text-wrap-mode: nowrap;&quot;&gt;close(stopChan)&lt;/span&gt;" style="rounded=0;whiteSpace=wrap;html=1;fontSize=10;labelBackgroundColor=none;" vertex="1" parent="1">
          <mxGeometry x="-200" y="602.86" width="120" height="20" as="geometry" />
        </mxCell>
        <mxCell id="tVDAVDbjrY3sQJ4G50GR-157" style="edgeStyle=orthogonalEdgeStyle;rounded=0;orthogonalLoop=1;jettySize=auto;html=1;exitX=0;exitY=0.5;exitDx=0;exitDy=0;entryX=1;entryY=0.439;entryDx=0;entryDy=0;entryPerimeter=0;shape=link;fillColor=#ffe6cc;strokeColor=#d79b00;" edge="1" parent="1" source="tVDAVDbjrY3sQJ4G50GR-77" target="tVDAVDbjrY3sQJ4G50GR-1">
          <mxGeometry relative="1" as="geometry" />
        </mxCell>
        <mxCell id="tVDAVDbjrY3sQJ4G50GR-158" value="&lt;span style=&quot;text-wrap-mode: nowrap;&quot;&gt;。。。。。。&lt;/span&gt;" style="rounded=0;whiteSpace=wrap;html=1;fontSize=10;fillColor=none;strokeColor=#9673a6;" vertex="1" parent="1">
          <mxGeometry x="-1150" y="497.16" width="80" height="74.28" as="geometry" />
        </mxCell>
        <mxCell id="tVDAVDbjrY3sQJ4G50GR-159" style="edgeStyle=orthogonalEdgeStyle;rounded=0;orthogonalLoop=1;jettySize=auto;html=1;exitX=0;exitY=0.5;exitDx=0;exitDy=0;entryX=0.982;entryY=0.312;entryDx=0;entryDy=0;entryPerimeter=0;fillColor=#e1d5e7;strokeColor=#9673a6;shape=link;" edge="1" parent="1" source="tVDAVDbjrY3sQJ4G50GR-150" target="tVDAVDbjrY3sQJ4G50GR-158">
          <mxGeometry relative="1" as="geometry" />
        </mxCell>
        <mxCell id="tVDAVDbjrY3sQJ4G50GR-160" value="默认轮询间隔 500ms&lt;div&gt;可在 config.Redis 中设置&lt;/div&gt;" style="text;html=1;align=left;verticalAlign=middle;resizable=0;points=[];autosize=1;strokeColor=none;fillColor=none;fontSize=10;fontStyle=2" vertex="1" parent="1">
          <mxGeometry x="-322.19" y="265" width="130" height="40" as="geometry" />
        </mxCell>
        <mxCell id="tVDAVDbjrY3sQJ4G50GR-165" style="edgeStyle=orthogonalEdgeStyle;rounded=0;orthogonalLoop=1;jettySize=auto;html=1;exitX=0;exitY=0.5;exitDx=0;exitDy=0;entryX=0.495;entryY=0.246;entryDx=0;entryDy=0;entryPerimeter=0;" edge="1" parent="1" source="tVDAVDbjrY3sQJ4G50GR-161" target="tVDAVDbjrY3sQJ4G50GR-108">
          <mxGeometry relative="1" as="geometry">
            <mxPoint x="-440" y="260" as="targetPoint" />
            <Array as="points">
              <mxPoint x="-462" y="335" />
              <mxPoint x="-462" y="260" />
            </Array>
          </mxGeometry>
        </mxCell>
        <mxCell id="tVDAVDbjrY3sQJ4G50GR-161" value="&lt;span style=&quot;text-wrap-mode: nowrap; background-color: rgb(255, 255, 255);&quot;&gt;b.Publish(ctx, signature)&lt;/span&gt;" style="rounded=0;whiteSpace=wrap;html=1;fontSize=10;" vertex="1" parent="1">
          <mxGeometry x="-442.43" y="325.22" width="120" height="20" as="geometry" />
        </mxCell>
        <mxCell id="tVDAVDbjrY3sQJ4G50GR-166" value="默认轮询间隔 1000ms&lt;div&gt;可在 config.Redis 中设置&lt;/div&gt;" style="text;html=1;align=right;verticalAlign=middle;resizable=0;points=[];autosize=1;strokeColor=none;fillColor=none;fontSize=10;fontStyle=2" vertex="1" parent="1">
          <mxGeometry x="-737.56" y="340" width="130" height="40" as="geometry" />
        </mxCell>
        <mxCell id="tVDAVDbjrY3sQJ4G50GR-167" style="rounded=0;orthogonalLoop=1;jettySize=auto;html=1;exitX=0.25;exitY=1;exitDx=0;exitDy=0;entryX=0.852;entryY=0.056;entryDx=0;entryDy=0;entryPerimeter=0;endArrow=none;startFill=0;" edge="1" parent="1" source="tVDAVDbjrY3sQJ4G50GR-125" target="tVDAVDbjrY3sQJ4G50GR-166">
          <mxGeometry relative="1" as="geometry" />
        </mxCell>
      </root>
    </mxGraphModel>
  </diagram>
</mxfile>
